<mxfile host="app.diagrams.net" agent="Mozilla/5.0 (Macintosh; Intel Mac OS X 10_15_7) AppleWebKit/605.1.15 (KHTML, like Gecko) Version/18.5 Safari/605.1.15" version="27.2.0">
  <diagram id="OQhKb-rzC3_iHx6fHv-0" name="Page-1">
    <mxGraphModel dx="944" dy="590" grid="1" gridSize="10" guides="1" tooltips="1" connect="1" arrows="1" fold="1" page="1" pageScale="1" pageWidth="850" pageHeight="1100" math="0" shadow="0">
      <root>
        <mxCell id="0" />
        <mxCell id="1" parent="0" />
        <mxCell id="A2stC9aahbY3Z98nC45Z-1" value="App Assessment" style="ellipse;whiteSpace=wrap;html=1;aspect=fixed;fillColor=#60a917;fontColor=#ffffff;strokeColor=#2D7600;" parent="1" vertex="1">
          <mxGeometry x="365" y="40" width="80" height="80" as="geometry" />
        </mxCell>
        <mxCell id="A2stC9aahbY3Z98nC45Z-2" value="" style="endArrow=classic;html=1;rounded=0;" parent="1" source="A2stC9aahbY3Z98nC45Z-1" target="A2stC9aahbY3Z98nC45Z-3" edge="1">
          <mxGeometry width="50" height="50" relative="1" as="geometry">
            <mxPoint x="400" y="270" as="sourcePoint" />
            <mxPoint x="450" y="220" as="targetPoint" />
          </mxGeometry>
        </mxCell>
        <mxCell id="A2stC9aahbY3Z98nC45Z-3" value="Is the application under a load balancer?" style="rhombus;whiteSpace=wrap;html=1;fillColor=#1ba1e2;fontColor=#ffffff;strokeColor=#006EAF;" parent="1" vertex="1">
          <mxGeometry x="300" y="160" width="210" height="110" as="geometry" />
        </mxCell>
        <mxCell id="A2stC9aahbY3Z98nC45Z-4" value="" style="endArrow=classic;html=1;rounded=0;exitX=0.5;exitY=1;exitDx=0;exitDy=0;" parent="1" source="A2stC9aahbY3Z98nC45Z-3" target="A2stC9aahbY3Z98nC45Z-5" edge="1">
          <mxGeometry width="50" height="50" relative="1" as="geometry">
            <mxPoint x="400" y="360" as="sourcePoint" />
            <mxPoint x="450" y="310" as="targetPoint" />
          </mxGeometry>
        </mxCell>
        <mxCell id="A2stC9aahbY3Z98nC45Z-5" value="Retrieve LB Configuration&lt;br&gt;- Rules&lt;br&gt;- Weights&lt;br&gt;- Stickiness" style="shape=note;whiteSpace=wrap;html=1;backgroundOutline=1;darkOpacity=0.05;size=10;fillColor=#f0a30a;fontColor=#000000;strokeColor=#BD7000;" parent="1" vertex="1">
          <mxGeometry x="325" y="310" width="160" height="100" as="geometry" />
        </mxCell>
        <mxCell id="A2stC9aahbY3Z98nC45Z-6" value="" style="endArrow=classic;html=1;rounded=0;" parent="1" source="A2stC9aahbY3Z98nC45Z-5" target="A2stC9aahbY3Z98nC45Z-7" edge="1">
          <mxGeometry width="50" height="50" relative="1" as="geometry">
            <mxPoint x="400" y="490" as="sourcePoint" />
            <mxPoint x="450" y="440" as="targetPoint" />
          </mxGeometry>
        </mxCell>
        <mxCell id="A2stC9aahbY3Z98nC45Z-7" value="Can it be switched to&amp;nbsp;&lt;div&gt;AWS ELB/ALB?&lt;/div&gt;" style="rhombus;whiteSpace=wrap;html=1;fillColor=#1ba1e2;fontColor=#ffffff;strokeColor=#006EAF;" parent="1" vertex="1">
          <mxGeometry x="300" y="450" width="210" height="110" as="geometry" />
        </mxCell>
        <mxCell id="A2stC9aahbY3Z98nC45Z-8" value="" style="endArrow=classic;html=1;rounded=0;exitX=1;exitY=0.5;exitDx=0;exitDy=0;" parent="1" source="A2stC9aahbY3Z98nC45Z-7" target="A2stC9aahbY3Z98nC45Z-9" edge="1">
          <mxGeometry width="50" height="50" relative="1" as="geometry">
            <mxPoint x="610" y="550" as="sourcePoint" />
            <mxPoint x="660" y="500" as="targetPoint" />
          </mxGeometry>
        </mxCell>
        <mxCell id="A2stC9aahbY3Z98nC45Z-9" value="Proceed with AWS Managed Service" style="rounded=1;whiteSpace=wrap;html=1;fillColor=#6a00ff;fontColor=#ffffff;strokeColor=#3700CC;" parent="1" vertex="1">
          <mxGeometry x="590" y="477.5" width="120" height="55" as="geometry" />
        </mxCell>
        <mxCell id="A2stC9aahbY3Z98nC45Z-10" value="" style="endArrow=classic;html=1;rounded=0;exitX=0;exitY=0.5;exitDx=0;exitDy=0;" parent="1" source="A2stC9aahbY3Z98nC45Z-7" target="A2stC9aahbY3Z98nC45Z-11" edge="1">
          <mxGeometry width="50" height="50" relative="1" as="geometry">
            <mxPoint x="220" y="550" as="sourcePoint" />
            <mxPoint x="270" y="500" as="targetPoint" />
          </mxGeometry>
        </mxCell>
        <mxCell id="A2stC9aahbY3Z98nC45Z-11" value="Analysis &amp;amp; Refactor Process" style="rounded=1;whiteSpace=wrap;html=1;fillColor=#e3c800;fontColor=#000000;strokeColor=#B09500;" parent="1" vertex="1">
          <mxGeometry x="100" y="477.5" width="120" height="55" as="geometry" />
        </mxCell>
        <mxCell id="A2stC9aahbY3Z98nC45Z-12" value="Yes" style="text;html=1;strokeColor=none;fillColor=none;align=center;verticalAlign=middle;whiteSpace=wrap;rounded=0;" parent="1" vertex="1">
          <mxGeometry x="410" y="270" width="60" height="30" as="geometry" />
        </mxCell>
        <mxCell id="A2stC9aahbY3Z98nC45Z-13" value="Yes" style="text;html=1;strokeColor=none;fillColor=none;align=center;verticalAlign=middle;whiteSpace=wrap;rounded=0;" parent="1" vertex="1">
          <mxGeometry x="520" y="480" width="60" height="30" as="geometry" />
        </mxCell>
        <mxCell id="A2stC9aahbY3Z98nC45Z-14" value="No" style="text;html=1;strokeColor=none;fillColor=none;align=center;verticalAlign=middle;whiteSpace=wrap;rounded=0;" parent="1" vertex="1">
          <mxGeometry x="230" y="480" width="60" height="30" as="geometry" />
        </mxCell>
        <mxCell id="A2stC9aahbY3Z98nC45Z-15" value="No" style="text;html=1;strokeColor=none;fillColor=none;align=center;verticalAlign=middle;whiteSpace=wrap;rounded=0;" parent="1" vertex="1">
          <mxGeometry x="230" y="220" width="60" height="30" as="geometry" />
        </mxCell>
        <mxCell id="A2stC9aahbY3Z98nC45Z-16" value="" style="endArrow=classic;html=1;rounded=0;exitX=0;exitY=0.5;exitDx=0;exitDy=0;entryX=0.5;entryY=1;entryDx=0;entryDy=0;" parent="1" source="A2stC9aahbY3Z98nC45Z-3" target="A2stC9aahbY3Z98nC45Z-18" edge="1">
          <mxGeometry width="50" height="50" relative="1" as="geometry">
            <mxPoint x="200" y="360" as="sourcePoint" />
            <mxPoint x="160" y="320" as="targetPoint" />
            <Array as="points">
              <mxPoint x="160" y="215" />
            </Array>
          </mxGeometry>
        </mxCell>
        <mxCell id="A2stC9aahbY3Z98nC45Z-17" value="" style="endArrow=none;html=1;rounded=0;entryX=0.5;entryY=1;entryDx=0;entryDy=0;" parent="1" target="A2stC9aahbY3Z98nC45Z-9" edge="1">
          <mxGeometry width="50" height="50" relative="1" as="geometry">
            <mxPoint x="650" y="600" as="sourcePoint" />
            <mxPoint x="700" y="550" as="targetPoint" />
          </mxGeometry>
        </mxCell>
        <mxCell id="A2stC9aahbY3Z98nC45Z-18" value="End" style="ellipse;whiteSpace=wrap;html=1;aspect=fixed;fillColor=#e51400;fontColor=#ffffff;strokeColor=#B20000;" parent="1" vertex="1">
          <mxGeometry x="120" y="280" width="80" height="80" as="geometry" />
        </mxCell>
        <mxCell id="A2stC9aahbY3Z98nC45Z-20" value="End" style="ellipse;whiteSpace=wrap;html=1;aspect=fixed;fillColor=#e51400;fontColor=#ffffff;strokeColor=#B20000;" parent="1" vertex="1">
          <mxGeometry x="365" y="640" width="80" height="80" as="geometry" />
        </mxCell>
        <mxCell id="A2stC9aahbY3Z98nC45Z-21" value="" style="endArrow=classic;html=1;rounded=0;" parent="1" source="A2stC9aahbY3Z98nC45Z-9" target="A2stC9aahbY3Z98nC45Z-20" edge="1">
          <mxGeometry width="50" height="50" relative="1" as="geometry">
            <mxPoint x="580" y="600" as="sourcePoint" />
            <mxPoint x="630" y="550" as="targetPoint" />
            <Array as="points">
              <mxPoint x="650" y="600" />
              <mxPoint x="405" y="600" />
            </Array>
          </mxGeometry>
        </mxCell>
        <mxCell id="A2stC9aahbY3Z98nC45Z-22" value="" style="endArrow=classic;html=1;rounded=0;" parent="1" source="A2stC9aahbY3Z98nC45Z-11" target="A2stC9aahbY3Z98nC45Z-20" edge="1">
          <mxGeometry width="50" height="50" relative="1" as="geometry">
            <mxPoint x="250" y="600" as="sourcePoint" />
            <mxPoint x="300" y="550" as="targetPoint" />
            <Array as="points">
              <mxPoint x="160" y="600" />
              <mxPoint x="405" y="600" />
            </Array>
          </mxGeometry>
        </mxCell>
      </root>
    </mxGraphModel>
  </diagram>
</mxfile>
